#!OML:ASF F:\VICON\USERDATA\INSTALL\rory3\rory3.ASF
:FULLY-SPECIFIED
:DEGREES
77
root 0.04561884297303295 17.5023875846934 44.98801655355263 1.5012760398510903 -0.1532942305866215 -0.31823588393524815
lfemur -7.072199269253277 -2.4925331563338284 -26.922628798043064
ltibia 45.68607904489175
lfoot -14.855878751952542 -3.5992229183580147
ltoes -2.096093451800316
rfemur -41.384670161550495 -8.300289194714606 25.275568413507266
rtibia 105.83279934362322
rfoot 6.905205658759266 -7.730492745905689
rtoes 4.926465434149433
lowerback 16.45733331255603 0.7506962959387171 -1.0481417594078482
upperback 0.06301001459993927 1.018154917264163 0.5582485721090042
thorax -9.64317447850704 0.5360330138369376 1.7423887937853597
lowerneck -19.697393693469326 -2.778804402114387 -3.004892569591106
upperneck 12.832204839644449 -3.752680637380011 3.9768319381000197
head 7.4166974768396905 -1.429138987597037 1.3013590669763153
lclavicle -1.4622858365151587e-15 1.976996812358597e-15
lhumerus -46.11322788108725 -14.006598502068332 96.23954905053102
lradius 101.60286317026275
lwrist 34.16785994722869
lhand -26.280485840029062 -0.0762600291699107
lfingers 7.12502
lthumb 0.27498095227137576 29.90222594879296
rclavicle -1.4622858365151587e-15 1.976996812358597e-15
rhumerus -51.36764002173204 9.625197343715072 -98.96434464607717
rradius 113.2365571228234
rwrist -10.89992997348097
rhand -15.480454128623883 39.63415398800736
rfingers 7.12502
rthumb 10.701369731664919 9.953517781624432
78
root 0.006394776129786561 17.435723912464443 46.72279798290997 2.370229824261571 1.1962565812588375 0.12617575105954426
lfemur -1.563809784584425 -2.1051284250132296 -27.730742488130524
ltibia 40.97092074662151
lfoot -16.34463535347579 -3.6602032651155563
ltoes -2.942529996330464
rfemur -44.92740696412357 -6.6461804859438285 24.437614057132997
rtibia 87.83283391796856
rfoot 4.9221041035142905 -10.911098682894433
rtoes 0.7985573219201676
lowerback 16.23628905106699 0.25481058537417756 -1.841097784377802
upperback -0.14196693190406062 0.21875689014742083 0.6896710451921064
thorax -9.5989629150452 0.2049769218601527 2.587249685650701
lowerneck -19.773428080772714 -2.976210563660978 -3.2698839407518303
upperneck 12.594285329483784 -3.963749931653574 4.356704454464744
head 7.36958525109772 -1.5103185687037566 1.4539666400424378
lclavicle -1.3353826387801352e-15 2.06903952360838e-15
lhumerus -39.94702719952578 -16.64810386796615 96.34200181091943
lradius 105.59949318141331
lwrist 35.37056250129858
lhand -26.095792170962937 0.46614276379636466
lfingers 7.12502
lthumb 0.4533009652967581 30.446747356075438
rclavicle -1.3353826387801352e-15 2.06903952360838e-15
rhumerus -53.45007505275562 10.060384122002766 -98.9920856729969
rradius 113.47109816402879
rwrist -11.30025935325978
rhand -15.260215707798968 39.849062572432715
rfingers 7.12502
rthumb 10.913873922515682 10.185793157210247
79
root -0.047090992309653745 17.35445779004116 49.27173579203644 3.491199264301983 2.5434660461813503 0.5953510766992611
lfemur 4.966675360143137 -1.432904951314642 -28.182244950116868
ltibia 35.233486191142106
lfoot -16.5425115424392 -4.054029674490788
ltoes -4.574950735123896
rfemur -45.54968136120982 -3.2107023972939692 23.261827348423886
rtibia 66.10595209143682
rfoot 4.288301772427783 -15.37108615468405
rtoes -2.5496413352836993
lowerback 15.581740343904702 -0.15161851833638407 -2.578360983153706
upperback -0.3946239003426154 -0.43784523285440335 0.8105817413555094
thorax -9.407625754801469 -0.06710346354873198 3.4550142956050287
lowerneck -19.91336858776149 -3.056123952187556 -3.4052547858905777
upperneck 12.34346835462199 -4.066220683243254 4.658697702864879
head 7.326015174562905 -1.528445402946672 1.562450583033245
lclavicle -7.797056233524113e-16 2.4720764937186504e-15
lhumerus -33.74592431743005 -18.701263361410234 96.14492667482975
lradius 110.03524000631899
lwrist 36.56363478662247
lhand -25.951609847690527 0.9998154404846294
lfingers 7.12502
lthumb 0.5924998459424978 30.9797914661661
rclavicle -7.797056233524113e-16 2.4720764937186504e-15
rhumerus -55.137943457366404 10.20340278855485 -98.74975720796185
rradius 113.12399266225023
rwrist -11.258225634353584
rhand -15.000489028307213 40.241983047165604
rfingers 7.12502
rthumb 11.164520870061597 10.580252651841647
80
root -0.1235674657325873 17.18611923320242 51.11041662739057 4.562685828191562 3.696526718557298 0.9605619797801332
lfemur 11.523418485028861 -1.1975680025775053 -28.35159673958166
ltibia 30.176122559412157
lfoot -16.36986269124081 -4.787395918751169
ltoes -7.868121746650434
rfemur -44.79887769318784 0.6066187930496888 22.125642876704116
rtibia 46.292801665338814
rfoot 4.102985169153751 -18.627243784507026
rtoes -6.169959178395397
lowerback 14.757671512968377 -0.5045024217874832 -3.226948208416431
upperback -0.6123326251811794 -0.999261938035839 0.9434515389410701
thorax -9.1515044752645 -0.3009201749183482 4.2286080268303206
lowerneck -20.120796245500138 -3.028903452329841 -3.4513955325271555
upperneck 12.203364380235719 -4.0494689476817145 4.8123038019491435
head 7.313054217342002 -1.491624929311409 1.6126357434318883
lclavicle -4.0873427358916256e-16 2.741139655480217e-15
lhumerus -28.202342167684264 -20.300440940252166 95.81882238226274
lradius 114.03055563606301
lwrist 37.460388536386894
lhand -26.006449075746804 1.1434908014053935
lfingers 7.12502
lthumb 0.5395246579738944 31.12009113794175
rclavicle -4.0873427358916256e-16 2.741139655480217e-15
rhumerus -56.82815650001527 9.519333238031471 -97.98860558757032
rradius 111.7848289575012
rwrist -10.666664220620337
rhand -14.933277948061725 40.58629347359172
rfingers 7.12502
rthumb 11.229407327310971 10.906808972150305
81
root -0.21730026272613379 16.92292060161488 51.66792415382802 5.216103542250865 4.3861966726456005 1.0448214236973463
lfemur 16.543784147230966 -1.9283433151900917 -28.33865390815804
ltibia 27.82713750706224
lfoot -16.167537646111146 -5.773927650177076
ltoes -13.324435552532748
rfemur -44.34260942578703 2.8496187610404844 21.626233773836958
rtibia 35.29838150668756
rfoot 4.503509732526664 -18.374647235529398
rtoes -9.51308522750932
lowerback 14.116915761927554 -0.7877596183143312 -3.637076374022241
upperback -0.7350570860458043 -1.429837228212913 1.1393753012177934
thorax -8.954593980580334 -0.4823937168996001 4.7243086390291404
lowerneck -20.42031358948146 -2.9603356920626216 -3.4603693818507146
upperneck 12.247690302195954 -3.9616119104866634 4.7736030204040425
head 7.344540510943303 -1.4399762933177018 1.6038698979098744
lclavicle -6.916735692075752e-16 2.5359023184165886e-15
lhumerus -24.504717057120143 -21.34858658710138 95.61519929147568
lradius 116.74965619844144
lwrist 37.89554048816405
lhand -26.401011854108443 0.6913540502939379
lfingers 7.12502
lthumb 0.15850234199183078 30.66308432698949
rclavicle -6.916735692075752e-16 2.5359023184165886e-15
rhumerus -58.815424515201265 7.8582827574992224 -96.71371776994194
rradius 109.4810486012508
rwrist -9.630868700151913
rhand -15.209207422143653 40.755470784960046
rfingers 7.12502
rthumb 10.963165992310383 11.051519756947059
